<!-- icon666.com - MILLIONS vector ICONS FREE --><svg viewBox="0 0 32 32" xmlns="http://www.w3.org/2000/svg"><g id="Layer_37"><circle cx="16" cy="16" fill="#a9d2ed" r="14" style="fill: rgb(39, 76, 91);"></circle><path d="m17.41 16 6.016 6.006c.196.195.196.512 0 .707l-.712.712c-.195.195-.512.195-.707 0l-6.007-6.015-6.006 6.016c-.195.196-.512.196-.707 0l-.712-.712c-.195-.195-.195-.512 0-.707l6.015-6.007-6.016-6.006c-.196-.195-.196-.512 0-.707l.712-.712c.195-.195.512-.195.707 0l6.007 6.015 6.006-6.016c.195-.196.512-.196.707 0l.712.712c.195.195.195.512 0 .707z" fill="#36a0e8" style="fill: rgb(126, 182, 147);"></path></g></svg>