<svg width="39" height="56" viewBox="0 0 39 56" fill="none" xmlns="http://www.w3.org/2000/svg">
<path d="M1.85071 42.0684H36.7313M5.79102 48.5L32.791 48.5M18.791 1.50002V15.5M18.8656 14.7842V41.2158L1 22.458M29.9253 4.55275L18.8656 15.637L8.65668 4.55275M34.179 8.81593L18.8656 24.1633L4.40295 8.81593M36.7313 15.6367L18.8656 32.6894L1.85071 14.7842M37.582 23.3106L18.8656 42.0685M37.5821 31.8369L27.3731 42.0685M1 31.8369L11.209 42.0685M19.291 54.8579C9.19018 54.8579 1 46.4056 1 35.9772V20.0228C1 9.5963 9.19018 1.14211 19.291 1.14211C29.3937 1.14211 37.5821 9.5963 37.5821 20.0228V35.9772C37.5839 46.4056 29.3937 54.8579 19.291 54.8579Z" stroke="#7EB693" stroke-width="2" stroke-miterlimit="10"/>
</svg>
