<!-- icon666.com - MILLIONS vector ICONS FREE --><svg viewBox="-21 0 384 384" xmlns="http://www.w3.org/2000/svg"><path d="m117.332031 21.332031h106.667969c5.890625 0 10.667969-4.773437 10.667969-10.664062s-4.777344-10.667969-10.667969-10.667969h-106.667969c-5.890625 0-10.664062 4.777344-10.664062 10.667969s4.773437 10.664062 10.664062 10.664062zm0 0"></path><path d="m138.667969 298.667969c5.890625 0 10.664062-4.777344 10.664062-10.667969v-128c0-5.890625-4.773437-10.667969-10.664062-10.667969s-10.667969 4.777344-10.667969 10.667969v128c0 5.890625 4.777344 10.667969 10.667969 10.667969zm0 0"></path><path d="m330.667969 64h-320c-5.890625 0-10.667969 4.777344-10.667969 10.667969s4.777344 10.664062 10.667969 10.664062h32v288c0 5.890625 4.773437 10.667969 10.664062 10.667969h234.667969c5.890625 0 10.667969-4.777344 10.667969-10.667969v-288h32c5.890625 0 10.664062-4.773437 10.664062-10.664062s-4.773437-10.667969-10.664062-10.667969zm-53.335938 298.667969h-213.332031v-277.335938h213.332031zm0 0"></path><path d="m202.667969 298.667969c5.890625 0 10.664062-4.777344 10.664062-10.667969v-128c0-5.890625-4.773437-10.667969-10.664062-10.667969s-10.667969 4.777344-10.667969 10.667969v128c0 5.890625 4.777344 10.667969 10.667969 10.667969zm0 0"></path></svg>